<svg xmlns="http://www.w3.org/2000/svg" viewBox="0 0 187.879 187.879" style="enable-background:new 0 0 187.879 187.879" xml:space="preserve"><path d="M93.946 50.173c13.833 0 25.087-11.254 25.087-25.087C119.033 11.254 107.779 0 93.946 0 80.114 0 68.86 11.254 68.86 25.086c0 13.833 11.254 25.087 25.086 25.087zm0-35.173c5.562 0 10.087 4.525 10.087 10.086 0 5.562-4.525 10.087-10.087 10.087S83.86 30.648 83.86 25.086C83.86 19.525 88.385 15 93.946 15zM123.127 61.76a15.908 15.908 0 0 0-11.925-5.384H76.677c-4.558 0-8.9 1.959-11.917 5.375a15.904 15.904 0 0 0-3.859 12.491l13.35 107.065a7.5 7.5 0 0 0 7.442 6.572h24.348a7.5 7.5 0 0 0 7.441-6.562l13.494-107.053a15.906 15.906 0 0 0-3.849-12.504zM99.426 172.879h-11.11L75.785 72.386a.866.866 0 0 1 .218-.706.866.866 0 0 1 .674-.304h34.525c.269 0 .495.103.674.304a.863.863 0 0 1 .217.707L99.426 172.879z"/></svg>