<svg xmlns="http://www.w3.org/2000/svg" viewBox="0 0 486.395 486.395" style="enable-background:new 0 0 486.395 486.395" xml:space="preserve"><path d="m486.395 113.609-46.198-46.198 46.016-46.016L465 .182l-46.016 46.016L372.786 0 55.796 316.991 24.463 425.937l7.391 7.391L0 465.182l21.213 21.213 31.854-31.854 7.391 7.392L169.405 430.6l246.232-246.233 21.254 21.254-93.647 93.647 21.213 21.213 114.86-114.86-42.467-42.467 49.545-49.545zm-42.426 0-28.332 28.332-71.182-71.183 28.332-28.332 71.182 71.183zM58.183 417.23l18.342-63.775 56.415 56.415-63.775 18.342-10.982-10.982zm103.353-21.189-71.182-71.182L323.242 91.971l71.182 71.183-232.888 232.887z"/></svg>